<svg width="36" height="36" viewBox="0 0 36 36" fill="none" xmlns="http://www.w3.org/2000/svg">
<path fill-rule="evenodd" clip-rule="evenodd" d="M28.5 3H10.5C7.8804 3 6 4.95875 6 7.5V28.5C6 31.0412 7.8804 33 10.5 33H28.5C29.4627 33 30 32.4404 30 31.5V30H12C11.1716 30 10.5 29.3284 10.5 28.5C10.5 27.6716 11.1716 27 12 27H30V4.5C30 3.55964 29.4627 3 28.5 3Z" fill="black"/>
<mask id="mask0_2_12" style="mask-type:alpha" maskUnits="userSpaceOnUse" x="6" y="3" width="24" height="30">
<path fill-rule="evenodd" clip-rule="evenodd" d="M28.5 3H10.5C7.8804 3 6 4.95875 6 7.5V28.5C6 31.0412 7.8804 33 10.5 33H28.5C29.4627 33 30 32.4404 30 31.5V30H12C11.1716 30 10.5 29.3284 10.5 28.5C10.5 27.6716 11.1716 27 12 27H30V4.5C30 3.55964 29.4627 3 28.5 3Z" fill="white"/>
</mask>
<g mask="url(#mask0_2_12)">
</g>
</svg>
