<svg width="36" height="36" viewBox="0 0 36 36" fill="none" xmlns="http://www.w3.org/2000/svg">
<path d="M18.0001 0C8.06024 0 0 8.26271 0 18.4557C0 26.6099 5.15759 33.5279 12.3096 35.9683C13.2092 36.1391 13.5395 35.5679 13.5395 35.0805C13.5395 34.6404 13.5228 33.1865 13.515 31.6444C8.50736 32.7608 7.45068 29.4669 7.45068 29.4669C6.63187 27.3336 5.45209 26.7664 5.45209 26.7664C3.81894 25.6209 5.57519 25.6445 5.57519 25.6445C7.38272 25.7747 8.33447 27.5463 8.33447 27.5463C9.9399 30.3678 12.5454 29.5521 13.5725 29.0805C13.7341 27.8877 14.2006 27.0736 14.7154 26.6127C10.7173 26.146 6.51443 24.5635 6.51443 17.4918C6.51443 15.4768 7.21759 13.8305 8.36905 12.538C8.18216 12.0732 7.56604 10.1961 8.54342 7.65392C8.54342 7.65392 10.055 7.1579 13.4947 9.5457C14.9306 9.13678 16.4704 8.93171 18.0001 8.92468C19.5299 8.93171 21.0709 9.13678 22.5094 9.5457C25.945 7.1579 27.4545 7.65392 27.4545 7.65392C28.4343 10.1961 27.8178 12.0732 27.6309 12.538C28.7851 13.8305 29.4835 15.4768 29.4835 17.4918C29.4835 24.5803 25.2726 26.1411 21.2644 26.598C21.91 27.1707 22.4853 28.2939 22.4853 30.0157C22.4853 32.4851 22.4644 34.4726 22.4644 35.0805C22.4644 35.5716 22.7884 36.1471 23.7008 35.9658C30.849 33.5227 36 26.6072 36 18.4557C36 8.26271 27.9409 0 18.0001 0" fill="#161514"/>
<path d="M6.87064 26.3717C6.83107 26.4625 6.69064 26.4898 6.5627 26.4274C6.43239 26.3678 6.3592 26.244 6.40145 26.153C6.44012 26.0594 6.58085 26.0334 6.71087 26.0961C6.84148 26.1557 6.91586 26.2807 6.87064 26.3717" fill="#161514"/>
<path d="M7.59835 27.1972C7.51266 27.278 7.34516 27.2405 7.2315 27.1128C7.11398 26.9854 7.09197 26.815 7.17884 26.733C7.26721 26.6522 7.42965 26.6901 7.54747 26.8175C7.66499 26.9464 7.6879 27.1155 7.59835 27.1972" fill="#161514"/>
<path d="M8.30674 28.2497C8.19666 28.3275 8.01666 28.2545 7.90539 28.092C7.7953 27.9295 7.7953 27.7347 7.90777 27.6566C8.01934 27.5785 8.19666 27.6487 8.30942 27.81C8.41921 27.9752 8.41921 28.1701 8.30674 28.2497" fill="#161514"/>
<path d="M9.27726 29.2664C9.17878 29.3769 8.96903 29.3472 8.81551 29.1965C8.65842 29.0492 8.61468 28.8401 8.71346 28.7296C8.81313 28.6189 9.02407 28.65 9.17878 28.7995C9.33468 28.9466 9.38228 29.1572 9.27726 29.2664" fill="#161514"/>
<path d="M10.6161 29.8568C10.5727 30 10.3707 30.065 10.1671 30.0042C9.96394 29.9416 9.83095 29.7739 9.87201 29.6293C9.91426 29.4852 10.1172 29.4174 10.3222 29.4825C10.5251 29.5448 10.6584 29.7113 10.6161 29.8568" fill="#161514"/>
<path d="M12.0865 29.9664C12.0915 30.1171 11.919 30.2421 11.7053 30.2448C11.4905 30.2496 11.3168 30.1277 11.3144 29.9794C11.3144 29.8272 11.4831 29.7034 11.6979 29.6998C11.9115 29.6955 12.0865 29.8166 12.0865 29.9664" fill="#161514"/>
<path d="M13.4547 29.7294C13.4803 29.8765 13.3319 30.0275 13.1197 30.0677C12.9112 30.1065 12.7181 30.0157 12.6916 29.8698C12.6657 29.7191 12.8169 29.5681 13.0251 29.5291C13.2376 29.4916 13.4277 29.5799 13.4547 29.7294" fill="#161514"/>
</svg>
